<?xml version="1.0" encoding="UTF-8"?>
<svg id="Calque_1" data-name="Calque 1" xmlns="http://www.w3.org/2000/svg" viewBox="0 0 425.23 425.23">
  <path d="M217.2,111.2s-16.38-.9-25.05-4.41c-3.73-1.51-7.24-3.04-11.12-4.22-8.53-2.61-17.24-3.71-26.18-3.69-6.2.01-12.1.32-18.16,1.49l-17.98,2.17c-2.44.47-4.67.74-6.89,1.97-.25.14-.63.31-.99.5-24.41,12.93-43.31,31.39-53.4,57.52-6.83,17.68-9.12,36.03-9.3,54.95-.11,11.89,1.07,23.64,3.65,35.2,5.54,24.74,17.82,47.26,35.58,65.36,27.48,28,64.87,43.57,103.29,49.37,17.27,2.61,34.7,3.42,52.12,2.41,38.01-2.21,75.75-14.45,104.87-39.5,28.57-24.58,44.65-58.39,47.91-95.79,1.22-13.94.84-27.84-1.14-41.66-4.43-30.83-17.94-58.27-42.83-77.47-5.1-3.94-10.34-7.46-16.04-10.4l-4.33-2.23-.28-.14-.29-.14c-.11-.06-2.37-.61-2.71-.69-2.98-.7-3.62-.89-6.63-1.83l-8.99-1.77c-8.39-2.62-17.19-2.07-25.87-1.28-5.34.48-13.01.09-17.6,3.08,0,0-10.71,6.78-20.8,8.84s-30.83,2.35-30.83,2.35Z" fill="#ea5236"/>
  <path d="M328.43,107.01c-3.13.15-6.24-.29-9.33-1.25l-8.95-2.79c-8.59-2.68-17.61-2.12-26.5-1.31-5.47.49-13.32.09-18.03,3.15,5.37,2.01,10.65,3.33,16.1,4.76l17.12,4.5c10.2,2.68,23,8.99,29.88,17.32-5.85-1.16-10.91-4.88-16.4-6.58-4.77-1.47-9.55-2.25-14.53-2.7l-15.68-1.44-18.99-1.66c-5.36-.47-10.5-.37-16.03.21l14.98,11.7c7.75,6.06,17.32,15.59,22.73,23.83,6.53,9.94,9.66,20.92,6.31,32.72-3.32-.4-7.01-10.07-9.05-13.02-4-5.78-8.6-10.89-13.4-16.02-12.45-13.31-24.17-16.61-38.69-26.66-3.13,6.24-4.01,12.95-5.19,19.61-.69,3.62-1.23,7.08-2.34,10.61-2.06,6.56-5.13,12.58-8.98,18.26-5.66,8.35-13.07,15.59-20.31,22.53-.1.09-.22.21-.27.2-.07,0-.14-.19-.11-.37,4.16-25.4,9.24-51.27,24.56-72.78-3.63,1.57-6.63,3.53-9.91,5.37-3.87,2.16-7.54,4.32-11.65,6.02-4.41,1.83-8.8,3.07-13.48,4.18-8.37,1.99-16.41,4.33-24.45,7.43-7.33,2.82-14.57,5.46-21.49,9.14l-11.49,6.12c-6.13,3.29-13.1,6.95-20.17,8.16l11.03-13.09c4.13-4.9,8.35-9.46,12.92-13.93,9.53-9.32,18.8-16.09,31.48-20.53,4.81-1.69,9.52-3.05,14.53-4.02l11.75-2.28,21.45-4.22c1.72-.55,3.38-.77,4.88-1.9-9.98,1.44-16.78-.92-25.66-4.52-3.82-1.55-7.42-3.11-11.39-4.33-8.73-2.67-17.66-3.8-26.82-3.78-6.35.01-12.39.33-18.6,1.53l-18.3,3.54c-2.5.48-4.85.77-7.45.66-.77-.26-1.63-.19-2.45-.7,13.35-8.2,27.85-14.59,43.32-17.2s27.35-.52,42.54,3.08l15.89,3.54c5.3,1.18,10.54,1.76,16.01,1.91,1.54-12.04-.05-24.42-2.79-36.09-1.98-8.91-5.49-13.66-10.82-20.61-1.11-1.44-2.1-2.88-2.96-4.46-.66-1.23-.68-2.49.09-3.69,2.89-4.47,12.48-9.19,17.42-8.89.99.06,1.65.59,2.04,1.45,1.08,2.42,1.98,4.74,2.83,7.32,6.5,19.85,9.33,42.81,5.69,63.72,7.44-1.52,14.29-3.58,21.26-5.99,5.51-1.9,10.75-3.77,16.36-5.28,15.15-4.11,30.11-3.74,44.23,3.43,5.31,2.69,17.09,9.09,16.86,15.86-.53.13-.99.21-1.61.24Z" fill="#499c37"/>
</svg>